{
	"accessors": [
		{
			"bufferView": 0,
			"byteOffset": 0,
			"componentType": 5123,
			"count": 72,
			"type": "SCALAR"
		},
		{
			"bufferView": 1,
			"byteOffset": 0,
			"componentType": 5126,
			"count": 48,
			"max": [
				0.368044704198837,
				0.338575422763824,
				0.00434182118624449
			],
			"min": [
				-0.368044704198837,
				-0.338575422763824,
				0.0
			],
			"type": "VEC3"
		},
		{
			"bufferView": 2,
			"byteOffset": 0,
			"componentType": 5126,
			"count": 48,
			"type": "VEC3"
		},
		{
			"bufferView": 3,
			"byteOffset": 0,
			"componentType": 5126,
			"count": 48,
			"type": "VEC2"
		}
	],
	"asset": {
		"extras": {
			"created": "Tue Dec  1 17:04:54 2020"
		},
		"copyright": "CC BY 4.0 https://creativecommons.org/licenses/by/4.0/",
		"generator": "Gestaltor 2020.4.2 Kuerbiskuchen Professional (dev-23f27e6*)",
		"version": "2.0"
	},
	"bufferViews": [
		{
			"buffer": 0,
			"byteLength": 144,
			"byteOffset": 0,
			"target": 34963
		},
		{
			"buffer": 0,
			"byteLength": 576,
			"byteOffset": 144,
			"target": 34962
		},
		{
			"buffer": 0,
			"byteLength": 576,
			"byteOffset": 720,
			"target": 34962
		},
		{
			"buffer": 0,
			"byteLength": 384,
			"byteOffset": 1296,
			"target": 34962
		}
	],
	"buffers": [
		{
			"byteLength": 1680,
			"uri": "AnalyticalGrayscale.bin"
		}
	],
	"cameras": [
		{
			"name": "Generated Camera",
			"perspective": {
				"yfov": 0.8,
				"zfar": 180.74497985839844,
				"znear": 0.01807449758052826
			},
			"type": "perspective"
		}
	],
	"images": [
		{
			"mimeType": "image/png",
			"name": "AnalyticalGrayscale_Normal.png",
			"uri": "AnalyticalGrayscale_Normal.png"
		},
		{
			"mimeType": "image/jpeg",
			"name": "AnalyticalGrayscale_ORM.jpg",
			"uri": "AnalyticalGrayscale_ORM.jpg"
		},
		{
			"mimeType": "image/png",
			"name": "AnalyticalGrayscale_BaseColor.png",
			"uri": "AnalyticalGrayscale_BaseColor.png"
		}
	],
	"materials": [
		{
			"alphaMode": "OPAQUE",
			"doubleSided": false,
			"extras": {
				"fromMI": {
					"isTruePBR": true,
					"shadingModel": "Metallic/Roughness"
				}
			},
			"name": "GRADIENTTEST_TRB_MDL_MR",
			"normalTexture": {
				"index": 0,
				"texCoord": 0
			},
			"pbrMetallicRoughness": {
				"baseColorFactor": [
					1.0,
					1.0,
					1.0,
					1.0
				],
				"baseColorTexture": {
					"index": 2,
					"texCoord": 0
				},
				"metallicFactor": 1.0,
				"metallicRoughnessTexture": {
					"index": 1,
					"texCoord": 0
				},
				"roughnessFactor": 1.0
			}
		}
	],
	"meshes": [
		{
			"name": "RootMesh",
			"primitives": [
				{
					"attributes": {
						"NORMAL": 2,
						"POSITION": 1,
						"TEXCOORD_0": 3
					},
					"indices": 0,
					"material": 0,
					"mode": 4
				}
			]
		}
	],
	"nodes": [
		{
			"mesh": 0,
			"name": "RootNode",
			"rotation": [
				0.0,
				0.0,
				0.0,
				1.0
			],
			"scale": [
				1.0,
				1.0,
				1.0
			],
			"translation": [
				0.0,
				0.0,
				0.0
			]
		},
		{},
		{
			"camera": 0,
			"name": "Generated Camera",
			"rotation": [
				0.0,
				0.0,
				0.0,
				1.0
			],
			"translation": [
				0.0,
				0.0,
				1.209506869316101
			]
		}
	],
	"samplers": [
		{}
	],
	"scene": 0,
	"scenes": [
		{
			"name": "Root Scene",
			"nodes": [
				0,
				2
			]
		}
	],
	"textures": [
		{
			"name": "AnalyticalGrayscale_Normal",
			"sampler": 0,
			"source": 0
		},
		{
			"name": "AnalyticalGrayscale_ORM",
			"sampler": 0,
			"source": 1
		},
		{
			"name": "AnalyticalGrayscale_BaseColor",
			"sampler": 0,
			"source": 2
		}
	]
}